<svg xmlns="http://www.w3.org/2000/svg" version="1.1" xmlns:xlink="http://www.w3.org/1999/xlink" xmlns:svgjs="http://svgjs.dev/svgjs" viewBox="0 0 4.9365523979913695 5.33924203051757"><g transform="matrix(1,0,0,1,1.6629558758286196,1.6681984376260175)"><rect width="5.33924203051757" height="5.33924203051757" x="-1.86430069209172" y="-1.6681984376260175" fill="#ffffff"></rect><g><path d=" M -0.9152226971907965 -0.3761587579511121 L -0.8988109249995466 -0.36472837153846094 Q -0.9162789546502259 -0.33789801671182873 -0.9203751974785069 -0.3206434290699359 Q -0.9244714403067879 -0.30338884142804323 -0.9129687362426071 -0.2892843102691611 Q -0.9014660321784262 -0.2751797791102789 -0.8711042536246141 -0.2540335642468744 L -0.4640923032816183 0.029440018786872857 Q -0.4345511133373686 0.05001471432964483 -0.41663716210176477 0.055788824748437105 Q -0.39872321086616086 0.06156293516722941 -0.384655370078665 0.05186263333802488 Q -0.3705875292911692 0.04216233150882032 -0.3506577338118025 0.01704653464408573 L -0.33424596162055265 0.028476921056736826 Q -0.3513181604967566 0.049489774873658965 -0.3751607469474726 0.08284814820540484 Q -0.3990033333981886 0.11620652153715069 -0.4230071448647559 0.15067124313877533 Q -0.4510115915757511 0.19088008500733744 -0.4743193490772209 0.22522027196449707 Q -0.4976271065786907 0.25956045892165674 -0.5108454316960122 0.28203880141154664 L -0.5272572038872619 0.27060841499889554 Q -0.5106097628461451 0.2432065408516307 -0.5063889853733993 0.22664800717483552 Q -0.5021682079006533 0.21008947349804033 -0.5137954466092991 0.19528888837406064 Q -0.5254226853179449 0.18048830325008094 -0.5549638752621946 0.15991360770730897 L -0.9619758256051902 -0.12355997532643831 Q -0.9923376041590024 -0.14470619018984282 -1.009841261089825 -0.1501945409483188 Q -1.0273449180206478 -0.15568289170679483 -1.042108812773241 -0.14585805523312534 Q -1.0568727075258344 -0.13603321875945584 -1.0754103950750062 -0.11116649118365118 L -1.091822167266256 -0.12259687759630228 Q -1.076142076320247 -0.1433606621242945 -1.0516034359044335 -0.17684357010050533 Q -1.02706479548862 -0.21032647807671612 -0.9990603487776248 -0.2505353199452782 Q -0.9750565373110575 -0.28500004154690284 -0.9524448337746851 -0.3192156938595976 Q -0.929833130238313 -0.3534313461722923 -0.9152226971907965 -0.3761587579511121 M -0.4903872081096414 -0.7887490727921662 Q -0.44238081588826467 -0.8230475611828714 -0.4090768217193177 -0.8314792853478774 Q -0.3757728275503707 -0.8399110095128834 -0.34891984689678535 -0.8418902593753741 Q -0.3350865227376081 -0.8431705494624728 -0.3269493591608658 -0.8446826899735824 Q -0.31881219558412355 -0.846194830484692 -0.3131165219307399 -0.8502641426666402 Q -0.30009783929443434 -0.85956542765395 -0.3207943670209219 -0.8988547867740315 L -0.30208001073123264 -0.9122253839432894 Q -0.29184840247357124 -0.8961843680009698 -0.277663650710493 -0.8737501794170284 Q -0.2634788989474146 -0.8513159908330871 -0.23888852937640387 -0.8160376160921623 Q -0.21429815980539307 -0.7807592413512378 -0.17360503798591237 -0.7238025048174009 L -0.19231939427560163 -0.7104319076481429 Q -0.22580324114343509 -0.7504173049693086 -0.27056177971245354 -0.778660414308857 Q -0.31532031828147206 -0.8069035236484055 -0.3633310928643104 -0.8113154987113312 Q -0.4113418674471488 -0.8157274737742573 -0.454466253679911 -0.7849169672537932 Q -0.49352230158882765 -0.7570131122918636 -0.5030500807805842 -0.717022845680185 Q -0.5125778599723408 -0.6770325790685066 -0.48467400501041125 -0.63797653115959 Q -0.4614207925421365 -0.605429824568826 -0.42857952536310884 -0.5938669023570441 Q -0.3957382581840812 -0.5823039801452621 -0.34871613467438545 -0.5827161701972109 Q -0.3016940111646898 -0.5831283602491597 -0.23485173775752846 -0.5841821561318117 Q -0.17777445018569893 -0.5868623134858992 -0.1288338392615603 -0.5837291677229182 Q -0.07989322833742174 -0.5805960219599372 -0.038506989891164634 -0.5622335802032004 Q 0.0028792485550924174 -0.5438711384464635 0.03427108538726331 -0.4999330845489322 Q 0.07263888595991658 -0.4462310186741718 0.069564554928778 -0.3911874133352137 Q 0.06649022389763942 -0.3361438079962555 0.03342343637226758 -0.28609545574813533 Q 0.00035664884689573517 -0.23604710350001518 -0.05415908469263375 -0.19709797261565504 Q -0.10460647990831778 -0.16105549328982927 -0.1416881472452568 -0.14931028373390431 Q -0.17876981458219585 -0.13756507417797942 -0.20666880025361256 -0.13360949602730599 Q -0.23270811324242885 -0.13221157647652226 -0.242472125219658 -0.12523561273603984 Q -0.25549080785596356 -0.11593432774872997 -0.23479428012947598 -0.07664496862864849 L -0.2535086364191652 -0.06327437145939054 Q -0.2658332285705919 -0.0839650560372626 -0.28402896471282707 -0.11029308646572716 Q -0.30222470085506226 -0.1366211168941917 -0.3317563780755814 -0.17881566678565367 Q -0.36128805529610053 -0.22101021667711562 -0.40721314992094304 -0.28528996219387437 L -0.38849879363125384 -0.2986605593631323 Q -0.34687632239952415 -0.2472838147351993 -0.298396977678151 -0.21125253477755326 Q -0.2499176329567778 -0.1752212548199072 -0.1982448669534272 -0.16912410355370316 Q -0.14657210095007656 -0.16302695228749917 -0.09449737040485431 -0.20023209223673868 Q -0.052186651836861275 -0.2304612684454958 -0.03917186463296607 -0.27417185428047774 Q -0.026157077429070863 -0.31788244011545974 -0.05871157488465542 -0.36344782934252917 Q -0.09475405421048122 -0.41389522455821326 -0.15247197375491137 -0.42243289188967326 Q -0.21018989329934165 -0.43097055922113325 -0.28888916257749736 -0.4275904682335512 Q -0.34515278248455783 -0.42549164119117044 -0.39653439640300375 -0.42688079601903095 Q -0.4479160103214496 -0.42826995084689135 -0.49110408057656724 -0.446574064800837 Q -0.5342921508316848 -0.46487817875478266 -0.5662653179755626 -0.509629900317083 Q -0.6028891276130952 -0.5608909631975362 -0.6008024737969967 -0.612156408439451 Q -0.5987158199808982 -0.6634218536813657 -0.5681478763235737 -0.7092268841972669 Q -0.537579932666249 -0.7550319147131679 -0.4903872081096414 -0.7887490727921662 M 0.6589232223892003 -0.4795726005461587 L 0.6561990248131391 -0.4993862006119363 Q 0.6876283651607771 -0.505726276740212 0.7026619859405809 -0.5138497148207943 Q 0.7176956067203846 -0.5219731529013765 0.7206925689200183 -0.5405545472939932 Q 0.7236895311196521 -0.5591359416866098 0.7187859754827417 -0.5948004218050096 L 0.6512258755964235 -1.086177703436294 Q 0.6461861100807103 -1.1228328635579827 0.6383536971835678 -1.139420609282121 Q 0.6305212842864254 -1.1560083550062599 0.6132897000199389 -1.160200312027387 Q 0.5960581157534526 -1.1643922690485142 0.5652108257726942 -1.1611604428089082 L 0.562486628196633 -1.1809740428746858 Q 0.5893711981642358 -1.1836610295990795 0.6326019881861052 -1.1885954793237237 Q 0.6758327782079745 -1.193529929048368 0.7184320183493964 -1.1993869538368997 Q 0.7640032985006848 -1.2056526082618406 0.8039896287550814 -1.2121597883566535 Q 0.843975959009478 -1.2186669684514664 0.868606749212897 -1.2230628954248317 L 0.8713309467889583 -1.2032492953590541 Q 0.8397653965625171 -1.1978998992340673 0.8243045407204703 -1.189213016212439 Q 0.808843684878424 -1.1805261331908108 0.8062739577410329 -1.1625081837392401 Q 0.8037042306036422 -1.1444902342876695 0.8087439961193554 -1.1078350741659808 L 0.8763040960056738 -0.6164577925346963 Q 0.881207651642584 -0.5807933124162966 0.8891081694791279 -0.5637102266905136 Q 0.8970086873156717 -0.5466271409647305 0.9136768266411124 -0.5428624190058463 Q 0.9303449659665528 -0.539097697046962 0.9623191458294029 -0.5414750531620822 L 0.9650433434054642 -0.5216614530963046 Q 0.9400039235656361 -0.5202375661328058 0.899813278493035 -0.5152164060429263 Q 0.8596226334204338 -0.5101952459530468 0.8140513532691454 -0.5039295915281059 Q 0.7714521131277234 -0.49807256673957434 0.7284256379240588 -0.4916520970099967 Q 0.6853991627203939 -0.48523162728041913 0.6589232223892003 -0.4795726005461587 M 0.23887490099471512 -0.4218196119336608 L 0.2361507034186539 -0.4416332119994384 Q 0.2675800437662919 -0.4479732881277141 0.28261366454609566 -0.4560967262082964 Q 0.29764728532589935 -0.46422016428887863 0.3006442475255331 -0.4828015586814953 Q 0.30364120972516684 -0.501382953074112 0.29873765408825664 -0.5370474331925117 L 0.23117755420193836 -1.0284247148237962 Q 0.22613778868622508 -1.0650798749454848 0.21830537578908268 -1.0816676206696232 Q 0.21047296289194029 -1.098255366393762 0.19324137862545385 -1.102447323414889 Q 0.1760097943589674 -1.1066392804360163 0.1451625043782091 -1.1034074541964103 L 0.14243830680214786 -1.1232210542621879 Q 0.1683321967664618 -1.1257718311077787 0.2095816267817534 -1.1304338610748168 Q 0.250831056797045 -1.135095891041855 0.2993743769582001 -1.141770175103205 Q 0.34098293709633304 -1.1474909900129335 0.3814646073523741 -1.1540662750471478 Q 0.42194627760841513 -1.1606415600813622 0.4485584278184118 -1.1653099068123338 L 0.451282625394473 -1.1454963067465562 Q 0.4197170751680319 -1.1401469106215694 0.4042562193259853 -1.1314600275999411 Q 0.3887953634839387 -1.122773144578313 0.3862256363465479 -1.1047551951267423 Q 0.38365590920915704 -1.0867372456751714 0.3886956747248703 -1.0500820855534827 L 0.4562557746111886 -0.5587048039221983 Q 0.4611593302480988 -0.5230403238037987 0.46905984808464274 -0.5059572380780157 Q 0.4769603659211867 -0.4888741523522327 0.49362850524662716 -0.4851094303933484 Q 0.5102966445720676 -0.4813447084344641 0.5422708244349178 -0.4837220645495843 L 0.544995022010979 -0.4639084644838067 Q 0.5179742421645732 -0.4622121577627018 0.4772882570903276 -0.4571228927334207 Q 0.4366022720160819 -0.45203362770413963 0.39499371187794896 -0.4463128127944111 Q 0.3464503917167938 -0.4396385287330611 0.30540527651970684 -0.4334904787610896 Q 0.26436016132261986 -0.42734242878911816 0.23887490099471512 -0.4218196119336608 M 0.3591712034846767 -0.7876143625893306 L 0.3564470059086155 -0.8074279626551082 L 0.7477656072077232 -0.8612308647823174 L 0.7504898047837845 -0.8414172647165398 L 0.3591712034846767 -0.7876143625893306 M 1.6409850420929768 -1.0317530558086359 L 1.642420937418569 -0.36024509740113203 Q 1.642527359507142 -0.3216188281748779 1.6539965145175475 -0.3027254832262646 Q 1.6654656695279528 -0.28383213827765125 1.6781677887272914 -0.27786085970051305 L 1.6709702475211397 -0.2592008650438754 Q 1.6437000096567984 -0.27186317631876705 1.6060934590072609 -0.28690469712764066 Q 1.5684869083577233 -0.3019462179365142 1.5302339193116163 -0.3167011774091256 Q 1.4873159316013498 -0.33325552218327503 1.4488830040250888 -0.34754398178947055 Q 1.4104500764488277 -0.36183244139566606 1.3873383287402474 -0.3686034913773846 L 1.3945358699463994 -0.3872634860340222 Q 1.4428386104414406 -0.37077575542399854 1.4610122012694386 -0.3803789109687402 Q 1.4791857920974367 -0.38998206651348183 1.4788795275164865 -0.4447625940940597 L 1.4876124059780986 -0.9397865701131761 L 1.5137632047370702 -0.9575667760812683 L 1.229435929464816 -0.6428001950465976 Q 1.1766810344827614 -0.5838347725056511 1.1634722060574887 -0.5482008441278857 Q 1.150263377632216 -0.5125669157501205 1.1677970309060286 -0.49133436990950774 Q 1.1853306841798412 -0.47010182406889506 1.2219309193725012 -0.45384074219092746 L 1.2147333781663494 -0.4351807475342898 Q 1.1846641411035124 -0.4489226899901042 1.1568540876487097 -0.46018550166574806 Q 1.1290440341939072 -0.47144831334139187 1.1001210424761187 -0.4826045022109273 Q 1.0795950483538173 -0.4905217975376945 1.061221615033442 -0.49707290034727664 Q 1.0428481817130664 -0.5036240031568588 1.0281334315999728 -0.507156159595809 L 1.0353309728061248 -0.5258161542524467 Q 1.0563634754368247 -0.5219907349173146 1.085166641946201 -0.5355324334456808 Q 1.113969808455577 -0.549074131974047 1.1533560411619643 -0.592831699013341 L 1.576608060527577 -1.05658457296986 Q 1.5911761791925794 -1.0498935402721066 1.6084366742499694 -1.0432358146564162 Q 1.625697169307359 -1.0365780890407255 1.6409850420929768 -1.0317530558086359 M 1.554426903941403 -0.61283577433205 L 1.5472293627352511 -0.5941757796754124 L 1.2691954423513503 -0.701419143647076 L 1.285722980885821 -0.7164803677006377 L 1.554426903941403 -0.61283577433205 M 2.6769633578190604 -0.20046657723699035 L 2.6619794268411376 -0.18721962240016649 Q 2.637787512906635 -0.2085445209974779 2.617824992175974 -0.21225231900680103 Q 2.5978624714453136 -0.21596011701612422 2.5739912520449915 -0.20219730900534066 Q 2.5501200326446694 -0.1884345009945571 2.513409401748759 -0.15597946164433862 L 2.0953577274647186 0.2136105783030478 Q 2.0881587511115205 0.20395787197445303 2.079879404338506 0.19459291511325144 Q 2.0716000575654907 0.1852279582520498 2.0615779926308178 0.17540155430934523 L 2.1861771745646106 -0.514041005924232 L 1.8984856997884971 -0.2596994730572133 Q 1.85727988959921 -0.2232703472559476 1.8391526778578213 -0.1992359095782556 Q 1.8210254661164327 -0.1752014719005636 1.8252386379629755 -0.151563595875178 Q 1.8294518098095183 -0.12792571984979245 1.8548491277060504 -0.09164933298915676 L 1.8398651967281276 -0.07840237815233286 Q 1.8287789827309373 -0.0939618080650417 1.8086208010083082 -0.11751807495174232 Q 1.7884626192856794 -0.14107434183844292 1.770579230255967 -0.16130264865863844 Q 1.7553452321936196 -0.17853416928324942 1.739074288114983 -0.19618371258583595 Q 1.7228033440363462 -0.21383325588842245 1.7107073870690948 -0.22449570518707812 L 1.7256913180470175 -0.237742660023902 Q 1.7506324285304162 -0.21708010916843185 1.770220350986629 -0.2130411372881881 Q 1.7898082734428415 -0.20900216540794436 1.8140540911176117 -0.2230961472896485 Q 1.838299908792382 -0.23719012917135263 1.8742613431393962 -0.26898282077972996 L 2.2113997901426545 -0.5670393046082673 Q 2.239120062451811 -0.5915461710563915 2.2485880894773667 -0.6072578375575411 Q 2.2580561165029227 -0.6229695040586907 2.2519971563303676 -0.6396365074374446 Q 2.245938196157813 -0.6563035108161985 2.2261546127096317 -0.6801909515738198 L 2.2411385436875544 -0.6934379064106436 Q 2.2509869110081175 -0.6807884138864644 2.26613406026341 -0.6621453489711161 Q 2.2812812095187027 -0.6435022840557678 2.29651520758105 -0.6262707634311568 Q 2.312411553385239 -0.6082900462576497 2.327732400254641 -0.592470069923776 Q 2.3430532471240433 -0.5766500935899024 2.3557247030260813 -0.5638269034516132 L 2.2546865252951696 0.04205203382943851 L 2.489185045099658 -0.16526280936685528 Q 2.530390855288945 -0.20169193516812095 2.548518067030334 -0.22572637284581293 Q 2.5666452787717224 -0.24976081052350496 2.5628067051996277 -0.2737298604198111 Q 2.558968131627533 -0.29769891031611734 2.5328216171821047 -0.3333129494349118 L 2.5478055481600275 -0.34655990427173566 Q 2.559640958706114 -0.33166282210086806 2.579424542154295 -0.30777538134324683 Q 2.599208125602476 -0.2838879405856256 2.617091514632188 -0.2636596337654301 Q 2.632987860436377 -0.24567891659192298 2.6493022289185406 -0.22873514543470513 Q 2.665616597400705 -0.2117913742774873 2.6769633578190604 -0.20046657723699035" fill="#0e0904" fill-rule="nonzero"></path></g><g><path d=" M 0.5592295019709173 2.492864786623098 L 0.5542899523488052 2.512245211012948 Q 0.5210962534049546 2.5048169978748502 0.5025330284366495 2.506793529882203 Q 0.4839698034683443 2.5087700618895568 0.47383357023204126 2.5242460683440417 Q 0.46369733699573823 2.5397220747985267 0.45455917019483105 2.5755758599197494 L 0.33205833956645325 3.0562103847880295 Q 0.3231671502466516 3.0910951486897598 0.3245356829037058 3.1100193955272584 Q 0.32590421556076 3.128943642364757 0.34138022201524515 3.13907987560106 Q 0.3568562284697303 3.149216108837363 0.3893089949702641 3.159551385633938 L 0.3843694453481521 3.1789318100237884 Q 0.36257591226203584 3.1713132855193744 0.32926816893009736 3.162308051811485 Q 0.2959604255981588 3.1533028181035956 0.2620446829159213 3.1446586062649 Q 0.22425285535571382 3.1350264845017812 0.191182645152416 3.127113760753937 Q 0.1581124349491182 3.1192010370060927 0.1372690343775645 3.1159525523418603 L 0.1422085839996765 3.0965721279520104 Q 0.1756492604246327 3.1030313198706154 0.19408899665238508 3.101539298473009 Q 0.21252873288013743 3.1000472770754017 0.22278845485699325 3.08408676001117 Q 0.23304817683384907 3.068126242946939 0.24193936615365066 3.0332414790452087 L 0.3644401967820285 2.5526069541769285 Q 0.3735783635829357 2.516753169055706 0.3720863421853287 2.4983134328279535 Q 0.3705943207877217 2.479873696600201 0.3552418030737894 2.469252952754152 Q 0.339889285359857 2.458632208908103 0.30718954137821763 2.44926595333102 L 0.3121290910003296 2.4298855289411696 Q 0.3322315591285665 2.43604107726388 0.36493130311020594 2.445407332840963 Q 0.3976310470918454 2.4547735884180457 0.43542287465205287 2.4644057101811643 Q 0.4693386173342904 2.47304992201986 0.5030168268878872 2.4806016238985107 Q 0.5366950364414842 2.4881533257771618 0.5592295019709173 2.492864786623098 M 0.9402007893107831 2.502374533704839 Q 1.1178862896591346 2.480721289930384 1.21507402065422 2.5590398378231205 Q 1.3122617516493058 2.6373583857158573 1.3324633813159763 2.8031320089458838 Q 1.345648876128354 2.911331559437338 1.3133198571496565 2.997374191497701 Q 1.280990838170959 3.083416823558064 1.2060292205264562 3.1378847579793305 Q 1.1310676028819535 3.192352692400597 1.0169121138313368 3.206263994266867 Q 1.0020222674334303 3.208078511901598 0.9770848889279372 3.2101100515329555 Q 0.9521475104224442 3.212141591164313 0.9257816311983182 3.2148509107724075 Q 0.8994157519741923 3.217560230380502 0.8775773105905961 3.2202215229114404 Q 0.8428343356621475 3.224455397392479 0.8091445010813837 3.2290646322444663 Q 0.7754546665006199 3.233673867096453 0.7548508172281815 3.23819950463813 L 0.7524314603818736 3.218346376107588 Q 0.7859398431991643 3.2122481566158108 0.8025855236094963 3.204175280816129 Q 0.8192312040198283 3.196102405016447 0.8230097214173138 3.1775087822850665 Q 0.8267882388147993 3.158915159553686 0.8224333964914453 3.1231795281987105 L 0.7624333467030109 2.6308219406412676 Q 0.7579575365373413 2.5940936528597645 0.7498846607376594 2.5774479724494324 Q 0.7418117849379774 2.5608022920391007 0.723654006498703 2.556466962507194 Q 0.7054962280594287 2.552131632975287 0.6716249417151917 2.5552518831874833 L 0.6692055848688839 2.535398754656941 Q 0.6901723376682685 2.5338510863948454 0.7241041079336631 2.5312271643959123 Q 0.7580358781990577 2.5286032423969798 0.7906725724321366 2.523618647174045 Q 0.8252945795182699 2.5183921162664786 0.868850494443147 2.5120768747780744 Q 0.9124064093680242 2.50576163328967 0.9402007893107831 2.502374533704839 M 0.9175617998092827 2.5232665454402117 Q 0.8718996041890359 2.52883106618672 0.860058867537018 2.547399775230096 Q 0.8482181308850003 2.5659684842734727 0.8545084586854006 2.617586618452882 L 0.9149923798430967 3.1139148317164334 Q 0.9212827076434971 3.1655329658958427 0.9377326791475017 3.1806540914332304 Q 0.9541826506515064 3.1957752169706177 0.9998448462717531 3.19021069622411 Q 1.1080443967632074 3.177025201411732 1.1628255525833757 3.130557202024988 Q 1.2176067084035438 3.084089202638244 1.2322369066242245 3.0057440860066147 Q 1.2468671048449051 2.9273989693749853 1.2336816100325274 2.819199418883531 Q 1.2201332116932035 2.7080218991124956 1.184936679980054 2.638267299584111 Q 1.1497401482669045 2.5685127000557273 1.0852691082175028 2.539599294947569 Q 1.0207980681681015 2.510685889839411 0.9175617998092827 2.5232665454402117" fill="#8c1627" fill-rule="nonzero"></path></g><g clip-path="url(#SvgjsClipPath1004)"><g clip-path="url(#SvgjsClipPath1000301a1d37-1cb2-44fb-9358-aa2f4f057770)"><path d=" M 0.8053203231670653 1.6427509760131167 L 1.146142397711683 1.6427509760131167 L 0.8053203231670653 1.270726995481939 L 0.46449280895961864 1.6427509760131167 L 0.8053203231670653 1.6427509760131167 Z" fill="#0e0904" transform="matrix(1,0,0,1,0,0)" fill-rule="nonzero"></path></g><g clip-path="url(#SvgjsClipPath1000301a1d37-1cb2-44fb-9358-aa2f4f057770)"><path d=" M 0.8053203231670653 1.8580800290950523 L 1.0525366797520024 1.8580800290950523 L 0.8053203231670653 1.5882346751418988 L 0.558103966582128 1.8580800290950523 L 0.8053203231670653 1.8580800290950523 Z" fill="#0e0904" transform="matrix(1,0,0,1,0,0)" fill-rule="nonzero"></path></g><g clip-path="url(#SvgjsClipPath1000301a1d37-1cb2-44fb-9358-aa2f4f057770)"><path d=" M 0.8053203231670653 0.37936752535019047 L 1.146142397711683 0.37936752535019047 L 0.8053203231670653 0.7513915058813685 L 0.46449280895961864 0.37936752535019047 L 0.8053203231670653 0.37936752535019047 Z" fill="#0e0904" transform="matrix(1,0,0,1,0,0)" fill-rule="nonzero"></path></g><g clip-path="url(#SvgjsClipPath1000301a1d37-1cb2-44fb-9358-aa2f4f057770)"><path d=" M 0.8053203231670653 0.1640330326054257 L 1.0525366797520024 0.1640330326054257 L 0.8053203231670653 0.43388382622140836 L 0.558103966582128 0.1640330326054257 L 0.8053203231670653 0.1640330326054257 Z" fill="#0e0904" transform="matrix(1,0,0,1,0,0)" fill-rule="nonzero"></path></g><g clip-path="url(#SvgjsClipPath1000301a1d37-1cb2-44fb-9358-aa2f4f057770)"><path d=" M 0.8053203231670653 0 L 1.0075724268083297 0 L 0.8053203231670653 0.2207687159108341 L 0.6030627798629719 0 L 0.8053203231670653 0 Z" fill="#0e0904" transform="matrix(1,0,0,1,0,0)" fill-rule="nonzero"></path></g><g clip-path="url(#SvgjsClipPath1000301a1d37-1cb2-44fb-9358-aa2f4f057770)"><path d=" M 0.8053203231670653 2.022118501363307 L 1.0075724268083297 2.022118501363307 L 0.8053203231670653 1.8013497854524732 L 0.6030627798629719 2.022118501363307 L 0.8053203231670653 2.022118501363307 Z" fill="#0e0904" transform="matrix(1,0,0,1,0,0)" fill-rule="nonzero"></path></g><g clip-path="url(#SvgjsClipPath1000301a1d37-1cb2-44fb-9358-aa2f4f057770)"><path d=" M 1.064985105161878 1.0110570701722228 L 0.8053169703860579 1.270725204948043 L 0.5456488356102378 1.0110570701722226 L 0.8053169703860579 0.7513889353964023 Z" fill="#0e0904" transform="matrix(1,0,0,1,0,0)" fill-rule="nonzero"></path></g><g clip-path="url(#SvgjsClipPath1000301a1d37-1cb2-44fb-9358-aa2f4f057770)"><path d=" M 0.9595402040291585 1.3205379880061598 L 1.0986051842499414 1.1814784474482058 L 1.2941501836231746 1.5160884270422217 L 0.9595402040291585 1.3205379880061598 Z" fill="#8c1627" transform="matrix(1,0,0,1,0,0)" fill-rule="nonzero"></path></g><g clip-path="url(#SvgjsClipPath1000301a1d37-1cb2-44fb-9358-aa2f4f057770)"><path d=" M 0.651095002642143 1.3205379880061598 L 0.512035462084189 1.1814784474482058 L 0.31648502304812703 1.5160884270422217 L 0.651095002642143 1.3205379880061598 Z" fill="#8c1627" transform="matrix(1,0,0,1,0,0)" fill-rule="nonzero"></path></g><g clip-path="url(#SvgjsClipPath1000301a1d37-1cb2-44fb-9358-aa2f4f057770)"><path d=" M 0.9595402040291585 0.7015805133571473 L 1.0986051842499414 0.8406400539151013 L 1.2941501836231746 0.5060300743210854 L 0.9595402040291585 0.7015805133571473 Z" fill="#8c1627" transform="matrix(1,0,0,1,0,0)" fill-rule="nonzero"></path></g><g clip-path="url(#SvgjsClipPath1000301a1d37-1cb2-44fb-9358-aa2f4f057770)"><path d=" M 0.651095002642143 0.7015805133571473 L 0.512035462084189 0.8406400539151013 L 0.31648502304812703 0.5060300743210854 L 0.651095002642143 0.7015805133571473 Z" fill="#8c1627" transform="matrix(1,0,0,1,0,0)" fill-rule="nonzero"></path></g><g clip-path="url(#SvgjsClipPath1000301a1d37-1cb2-44fb-9358-aa2f4f057770)"><path d=" M 0.14103413816484403 1.0110211730418512 L 0 0.8699815952141783 L 0.4821989114676823 0.8699815952141783 L 0.3411647733028383 1.0110211730418512 L 0.4821989114676823 1.1520553112066954 L 0 1.1520553112066954 L 0.14103413816484403 1.0110211730418512 Z" fill="#0e0904" transform="matrix(1,0,0,1,0,0)" fill-rule="nonzero"></path></g><g clip-path="url(#SvgjsClipPath1000301a1d37-1cb2-44fb-9358-aa2f4f057770)"><path d=" M 1.4696010685064576 1.0110211730418512 L 1.6106406463341305 0.8699815952141783 L 1.1284362952036193 0.8699815952141783 L 1.2694704333684632 1.0110211730418512 L 1.1284362952036193 1.1520553112066954 L 1.6106406463341305 1.1520553112066954 L 1.4696010685064576 1.0110211730418512 Z" fill="#0e0904" transform="matrix(1,0,0,1,0,0)" fill-rule="nonzero"></path></g></g><g transform="matrix(-0.46025417314790945,-0.8877871907726165,0.8877871907726165,-0.46025417314790945,-2.847457551552367,1.6414502651695058)"><g clip-path="url(#SvgjsClipPath1005)"><path d=" M -1.077742974900719 1.870085321207748 L -0.7719613910903742 1.870085321207748 C -0.741753562986926 1.870085321207748 -0.7222647131593398 1.8476739200008514 -0.7222647131593398 1.8201935108629206 C -0.7222647131593398 1.8120090365525756 -0.7244067348834777 1.8036294298284377 -0.7286952131593397 1.7958330029318859 L -0.8818785928145121 1.52220746698361 C -0.8912338616076156 1.5052520124146447 -0.9079930750558914 1.496676829793955 -0.9247545059179605 1.496676829793955 C -0.9415159367800294 1.496676829793955 -0.9584702826420983 1.5052520124146447 -0.9678255514352018 1.52220746698361 L -1.1208137986765812 1.7958330029318859 C -1.125101389986926 1.8038223448284376 -1.1274398745731329 1.8120090365525756 -1.1274398745731329 1.8201935108629206 C -1.1274398745731329 1.8476739200008514 -1.1079510247455466 1.870085321207748 -1.077742974900719 1.870085321207748 Z" fill="#0e0904" transform="matrix(1,0,0,1,0,0)" fill-rule="nonzero"></path></g></g><g transform="matrix(0.46025417314790945,-0.8877871907726165,-0.8877871907726165,-0.46025417314790945,2.8655498779974184,4.713326809849125)"><g clip-path="url(#SvgjsClipPath1006)"><path d=" M 2.3824066832693322 1.870085321207748 L 2.688188267079677 1.870085321207748 C 2.718396095183125 1.870085321207748 2.7378849450107117 1.8476739200008514 2.7378849450107117 1.8201935108629206 C 2.7378849450107117 1.8120090365525756 2.7357429232865735 1.8036294298284377 2.7314544450107117 1.7958330029318859 L 2.578271065355539 1.52220746698361 C 2.5689157965624356 1.5052520124146447 2.5521565831141597 1.496676829793955 2.535395152252091 1.496676829793955 C 2.518633721390022 1.496676829793955 2.501679375527953 1.5052520124146447 2.4923241067348494 1.52220746698361 L 2.3393358594934703 1.7958330029318859 C 2.3350482681831255 1.8038223448284376 2.3327097835969184 1.8120090365525756 2.3327097835969184 1.8201935108629206 C 2.3327097835969184 1.8476739200008514 2.3521986334245044 1.870085321207748 2.3824066832693322 1.870085321207748 Z" fill="#0e0904" transform="matrix(1,0,0,1,0,0)" fill-rule="nonzero"></path></g></g></g><defs><clipPath id="SvgjsClipPath1004"><path d=" M 0 0 h 1.6106406463341305 v 2.022118501363307 h -1.6106406463341305 Z"></path></clipPath><clipPath id="SvgjsClipPath1000301a1d37-1cb2-44fb-9358-aa2f4f057770"><path d=" M 0 0 L 1.6106406463341305 0 L 1.6106406463341305 2.022118501363307 L 0 2.022118501363307 Z"></path></clipPath><clipPath id="SvgjsClipPath1005"><path d=" M -1.2351924369524432 1.3647810660353343 h 0.6208758620689655 v 0.6430499999999999 h -0.6208758620689655 Z"></path></clipPath><clipPath id="SvgjsClipPath1006"><path d=" M 2.224957221217608 1.3647810660353343 h 0.6208758620689655 v 0.6430499999999999 h -0.6208758620689655 Z"></path></clipPath></defs></svg>